<svg width="32" height="32" viewBox="0 0 32 32" fill="none" xmlns="http://www.w3.org/2000/svg">
<g id="icon-park-outline:order">
<g id="Group">
<path id="Vector" d="M22.034 4.66406H25.334C25.6876 4.66406 26.0267 4.80454 26.2768 5.05459C26.5268 5.30464 26.6673 5.64377 26.6673 5.9974V27.9974C26.6673 28.351 26.5268 28.6902 26.2768 28.9402C26.0267 29.1903 25.6876 29.3307 25.334 29.3307H6.66732C6.3137 29.3307 5.97456 29.1903 5.72451 28.9402C5.47446 28.6902 5.33398 28.351 5.33398 27.9974V5.9974C5.33398 5.64377 5.47446 5.30464 5.72451 5.05459C5.97456 4.80454 6.3137 4.66406 6.66732 4.66406H11.334V6.66406H20.6673V4.66406H22.034Z" stroke="#49B021" stroke-width="3" stroke-linejoin="round"/>
<path id="Vector_2" d="M18.0007 12.6641L12.6673 17.9981H19.3367L14.0007 23.3314M11.334 2.66406H20.6673V6.66406H11.334V2.66406Z" stroke="#49B021" stroke-width="3" stroke-linecap="round" stroke-linejoin="round"/>
</g>
</g>
</svg>
