<svg width="32" height="32" viewBox="0 0 32 32" fill="none" xmlns="http://www.w3.org/2000/svg">
<g id="tabler:truck-delivery">
<g id="Group">
<path id="Vector" d="M9.33268 25.3333C10.8054 25.3333 11.9993 24.1394 11.9993 22.6667C11.9993 21.1939 10.8054 20 9.33268 20C7.85992 20 6.66602 21.1939 6.66602 22.6667C6.66602 24.1394 7.85992 25.3333 9.33268 25.3333Z" stroke="#49B021" stroke-width="2" stroke-linecap="round" stroke-linejoin="round"/>
<path id="Vector_2" d="M22.6667 25.3333C24.1394 25.3333 25.3333 24.1394 25.3333 22.6667C25.3333 21.1939 24.1394 20 22.6667 20C21.1939 20 20 21.1939 20 22.6667C20 24.1394 21.1939 25.3333 22.6667 25.3333Z" stroke="#49B021" stroke-width="2" stroke-linecap="round" stroke-linejoin="round"/>
<path id="Vector_3" d="M3.99935 11.9974H9.33268M6.66602 22.6641H3.99935V17.3307L6.66602 22.6641ZM2.66602 6.66406H17.3327V22.6641L2.66602 6.66406ZM11.9993 22.6641H19.9993H11.9993ZM25.3327 22.6641H27.9993V14.6641H17.3327L25.3327 22.6641ZM17.3327 7.9974H23.9993L27.9993 14.6641L17.3327 7.9974Z" stroke="#49B021" stroke-width="2" stroke-linecap="round" stroke-linejoin="round"/>
</g>
</g>
</svg>
